<svg id="visual" viewBox="0 0 1920 1080" width="1920" height="1080" xmlns="http://www.w3.org/2000/svg" xmlns:xlink="http://www.w3.org/1999/xlink" version="1.1"><rect x="0" y="0" width="1920" height="1080" fill="#001220"></rect><path d="M0 744L45.7 732.8C91.3 721.7 182.7 699.3 274.2 682.7C365.7 666 457.3 655 548.8 676C640.3 697 731.7 750 823 764.8C914.3 779.7 1005.7 756.3 1097 751.2C1188.3 746 1279.7 759 1371.2 758.8C1462.7 758.7 1554.3 745.3 1645.8 741.2C1737.3 737 1828.7 742 1874.3 744.5L1920 747L1920 1081L1874.3 1081C1828.7 1081 1737.3 1081 1645.8 1081C1554.3 1081 1462.7 1081 1371.2 1081C1279.7 1081 1188.3 1081 1097 1081C1005.7 1081 914.3 1081 823 1081C731.7 1081 640.3 1081 548.8 1081C457.3 1081 365.7 1081 274.2 1081C182.7 1081 91.3 1081 45.7 1081L0 1081Z" fill="#fa7268"></path><path d="M0 759L45.7 751.3C91.3 743.7 182.7 728.3 274.2 742.3C365.7 756.3 457.3 799.7 548.8 799.3C640.3 799 731.7 755 823 735C914.3 715 1005.7 719 1097 729.5C1188.3 740 1279.7 757 1371.2 779.2C1462.7 801.3 1554.3 828.7 1645.8 822.2C1737.3 815.7 1828.7 775.3 1874.3 755.2L1920 735L1920 1081L1874.3 1081C1828.7 1081 1737.3 1081 1645.8 1081C1554.3 1081 1462.7 1081 1371.2 1081C1279.7 1081 1188.3 1081 1097 1081C1005.7 1081 914.3 1081 823 1081C731.7 1081 640.3 1081 548.8 1081C457.3 1081 365.7 1081 274.2 1081C182.7 1081 91.3 1081 45.7 1081L0 1081Z" fill="#ef5f67"></path><path d="M0 915L45.7 896C91.3 877 182.7 839 274.2 832C365.7 825 457.3 849 548.8 864.3C640.3 879.7 731.7 886.3 823 881.3C914.3 876.3 1005.7 859.7 1097 855C1188.3 850.3 1279.7 857.7 1371.2 854.5C1462.7 851.3 1554.3 837.7 1645.8 846C1737.3 854.3 1828.7 884.7 1874.3 899.8L1920 915L1920 1081L1874.3 1081C1828.7 1081 1737.3 1081 1645.8 1081C1554.3 1081 1462.7 1081 1371.2 1081C1279.7 1081 1188.3 1081 1097 1081C1005.7 1081 914.3 1081 823 1081C731.7 1081 640.3 1081 548.8 1081C457.3 1081 365.7 1081 274.2 1081C182.7 1081 91.3 1081 45.7 1081L0 1081Z" fill="#e34c67"></path><path d="M0 957L45.7 952.5C91.3 948 182.7 939 274.2 939C365.7 939 457.3 948 548.8 950.5C640.3 953 731.7 949 823 949C914.3 949 1005.7 953 1097 950.5C1188.3 948 1279.7 939 1371.2 933.3C1462.7 927.7 1554.3 925.3 1645.8 930.8C1737.3 936.3 1828.7 949.7 1874.3 956.3L1920 963L1920 1081L1874.3 1081C1828.7 1081 1737.3 1081 1645.8 1081C1554.3 1081 1462.7 1081 1371.2 1081C1279.7 1081 1188.3 1081 1097 1081C1005.7 1081 914.3 1081 823 1081C731.7 1081 640.3 1081 548.8 1081C457.3 1081 365.7 1081 274.2 1081C182.7 1081 91.3 1081 45.7 1081L0 1081Z" fill="#d53867"></path><path d="M0 1017L45.7 1019.7C91.3 1022.3 182.7 1027.7 274.2 1025.3C365.7 1023 457.3 1013 548.8 1003.2C640.3 993.3 731.7 983.7 823 983.5C914.3 983.3 1005.7 992.7 1097 993.3C1188.3 994 1279.7 986 1371.2 980C1462.7 974 1554.3 970 1645.8 969.5C1737.3 969 1828.7 972 1874.3 973.5L1920 975L1920 1081L1874.3 1081C1828.7 1081 1737.3 1081 1645.8 1081C1554.3 1081 1462.7 1081 1371.2 1081C1279.7 1081 1188.3 1081 1097 1081C1005.7 1081 914.3 1081 823 1081C731.7 1081 640.3 1081 548.8 1081C457.3 1081 365.7 1081 274.2 1081C182.7 1081 91.3 1081 45.7 1081L0 1081Z" fill="#c62368"></path></svg>